#N canvas 990 108 607 473 10;
#X msg 25 103 Bye!;
#X obj 195 184 print;
#X floatatom 144 104 5 0 0 0 - - -, f 5;
#X obj 100 38 bng 15 250 50 0 empty empty empty 17 7 0 10 -262144 -1
-1;
#X msg 100 69 1;
#X obj 100 104 +;
#X msg 23 60 set Bye!;
#X msg 241 37 0;
#X msg 295 39 1;
#X obj 242 95 metro 600;
#X obj 359 92 metro 600;
#X obj 359 41 tgl 15 0 empty empty empty 17 7 0 10 -262144 -1 -1 0
1;
#X obj 378 123 delay 100;
#X obj 353 230 bng 15 250 50 0 empty empty empty 17 7 0 10 -262144
-1 -1;
#X obj 377 230 bng 15 250 50 0 empty empty empty 17 7 0 10 -262144
-1 -1;
#X obj 460 203 delay 100;
#X obj 456 231 bng 15 250 50 0 empty empty empty 17 7 0 10 -262144
-1 -1;
#X obj 400 153 delay 100;
#X obj 403 232 bng 15 250 50 0 empty empty empty 17 7 0 10 -262144
-1 -1;
#X obj 429 178 delay 100;
#X obj 430 231 bng 15 250 50 0 empty empty empty 17 7 0 10 -262144
-1 -1;
#X connect 0 0 1 0;
#X connect 2 0 5 1;
#X connect 3 0 4 0;
#X connect 4 0 5 0;
#X connect 5 0 2 0;
#X connect 5 0 1 0;
#X connect 6 0 0 0;
#X connect 7 0 9 0;
#X connect 8 0 9 0;
#X connect 9 0 1 0;
#X connect 10 0 12 0;
#X connect 10 0 13 0;
#X connect 11 0 10 0;
#X connect 12 0 14 0;
#X connect 12 0 17 0;
#X connect 15 0 16 0;
#X connect 17 0 18 0;
#X connect 17 0 19 0;
#X connect 19 0 20 0;
#X connect 19 0 15 0;
